HIERARCHY
ROOT hip
{
	OFFSET 0.000000 0.000000 0.000000 
	CHANNELS 6 Xposition Yposition Zposition Xrotation Zrotation Yrotation
	JOINT abdomen
	{
		OFFSET 0.000000 3.402643 0.000000 
		CHANNELS 3 Xrotation Zrotation Yrotation
		JOINT chest
		{
			OFFSET 0.000000 8.438565 -0.680529 
			CHANNELS 3 Xrotation Zrotation Yrotation
			JOINT neck
			{
				OFFSET 0.000000 10.207942 -0.272212 
				CHANNELS 3 Xrotation Zrotation Yrotation
				JOINT head
				{
					OFFSET 0.000000 3.130431 0.000000 
					CHANNELS 3 Xrotation Zrotation Yrotation
					End Site
					{
						OFFSET 0.000000 3.130435 0.000000 
					}
				}
			}
			JOINT lCollar
			{
				OFFSET 3.470700 6.669187 -0.816635 
				CHANNELS 3 Yrotation Zrotation Xrotation
				JOINT lShldr
				{
					OFFSET 3.198488 0.000000 0.000000 
					CHANNELS 3 Zrotation Yrotation Xrotation
					JOINT lForeArm
					{
						OFFSET 10.139888 0.000000 0.000000 
						CHANNELS 3 Yrotation Zrotation Xrotation
						JOINT lHand
						{
							OFFSET 8.370511 0.000000 0.000000 
							CHANNELS 3 Zrotation Yrotation Xrotation
							End Site
							{
								OFFSET 4.083176 0.000000 0.000000 
							}
						}
					}
				}
			}
			JOINT rCollar
			{
				OFFSET -3.470700 6.669187 -0.816635 
				CHANNELS 3 Yrotation Zrotation Xrotation
				JOINT rShldr
				{
					OFFSET -3.198488 0.000000 0.000000 
					CHANNELS 3 Zrotation Yrotation Xrotation
					JOINT rForeArm
					{
						OFFSET -10.139888 0.000000 0.000000 
						CHANNELS 3 Yrotation Zrotation Xrotation
						JOINT rHand
						{
							OFFSET -8.370511 0.000000 0.000000 
							CHANNELS 3 Zrotation Yrotation Xrotation
							End Site
							{
								OFFSET -4.083176 0.000000 0.000000 
							}
						}
					}
				}
			}
		}
	}
	JOINT lThigh
	{
		OFFSET 5.308129 -1.633274 1.361059 
		CHANNELS 3 Xrotation Zrotation Yrotation
		JOINT lShin
		{
			OFFSET -2.041588 -20.007561 0.000000 
			CHANNELS 3 Xrotation Zrotation Yrotation
			JOINT lFoot
			{
				OFFSET 0.000000 -19.190928 -1.224953 
				CHANNELS 3 Xrotation Yrotation Zrotation
				End Site
				{
					OFFSET 0.000000 -2.449906 4.627600 
				}
			}
		}
	}
	JOINT rThigh
	{
		OFFSET -5.308129 -1.633274 1.361059 
		CHANNELS 3 Xrotation Zrotation Yrotation
		JOINT rShin
		{
			OFFSET 2.041588 -20.007561 0.000000 
			CHANNELS 3 Xrotation Zrotation Yrotation
			JOINT rFoot
			{
				OFFSET 0.000000 -19.190928 -1.224953 
				CHANNELS 3 Xrotation Yrotation Zrotation
				End Site
				{
					OFFSET 0.000000 -2.449906 4.627600 
				}
			}
		}
	}
}
MOTION
Frames: 18
Frame Time: 0.033333
-64.003571 50.647697 56.612083 -4.057163 3.211992 -59.547031 0.000000 0.000000 0.000000 3.405896 1.367167 0.312644 4.192053 0.896964 3.281765 10.348112 1.776489 1.778306 -0.491943 -1.930209 3.693415 -75.998772 18.157635 4.173192 -32.272991 -3.791128 25.442888 -2.665365 9.865313 -3.738204 3.131058 9.265648 3.455456 50.306381 -20.573179 9.344312 30.154110 7.563328 15.334765 0.591622 -9.669610 -3.633057 -3.671393 9.782775 7.771748 3.845740 -3.036389 40.483829 14.032221 -0.715438 -5.951849 -3.759392 -11.695933 -9.176080 16.005131 3.612918 -12.685584 -11.078589 -0.490018 4.983954 
-64.087250 50.615986 56.700970 -4.412501 2.936758 -59.089870 0.000000 0.000000 0.000000 3.811372 1.337832 0.537419 4.787519 0.731250 3.242546 10.087605 1.923216 1.446137 0.293219 -1.917614 4.074854 -75.900284 19.101727 3.716130 -32.715023 -3.601680 25.853119 -2.682764 9.678372 -3.734858 3.331434 9.361013 3.819921 50.624180 -20.359060 8.493093 30.635048 7.235194 14.726385 0.628825 -9.784704 -3.639656 -4.431019 9.669811 7.321405 6.137748 -2.669292 38.856178 13.958416 -0.889784 -7.522601 -3.388051 -11.889617 -9.334893 16.568058 3.474586 -13.150207 -11.465275 -0.537314 5.280070 
-64.137497 50.618088 56.801434 -4.696924 2.800857 -58.450684 0.000000 0.000000 0.000000 4.157938 1.269413 0.781491 5.241419 0.477777 3.183727 9.793533 2.187176 0.987100 0.395124 -1.967824 4.367956 -75.925591 19.471161 2.833196 -33.205990 -3.352688 23.898748 -4.592188 8.813148 -3.790605 3.591751 9.311712 4.115057 51.262566 -19.621208 7.462880 31.254368 6.883463 13.663234 2.018058 -10.207535 -3.723094 -5.819542 9.666210 6.639584 9.314550 -2.101077 37.263687 13.705398 -1.004087 -8.517132 -2.879968 -12.090317 -9.589473 16.605860 3.415201 -13.779236 -11.529654 -0.603047 5.563064 
-64.167107 50.612858 56.972069 -4.527944 2.781969 -57.762856 0.000000 0.000000 0.000000 4.242518 1.620920 0.840336 5.141113 -0.263237 3.291026 9.938287 2.841676 0.528148 0.373087 -2.782199 4.448974 -75.223030 19.139997 2.520772 -33.656921 -3.334261 21.959160 -5.721262 8.337735 -3.819181 4.126883 8.325685 4.150359 52.865540 -18.025850 6.036042 31.416790 6.635529 14.461453 1.168484 -9.408623 -3.660026 -6.385441 9.948709 6.367816 10.416322 -2.058466 32.727448 13.095271 -1.094284 -9.821718 -2.597629 -12.053339 -9.717530 16.400417 3.483389 -14.545373 -11.491211 -0.601517 5.802200 
-64.144539 50.617615 57.201534 -4.640431 2.884969 -57.251312 0.000000 0.000000 0.000000 4.213620 1.161858 1.191755 5.337455 0.097506 3.183606 10.856811 2.841746 0.342345 0.335749 -1.688188 4.406363 -75.970856 18.318300 2.775651 -32.876255 -3.391424 22.292421 -5.665161 7.901061 -3.791730 4.269722 8.649265 4.152282 53.181519 -16.791426 6.058022 32.254265 6.520174 13.806272 0.963708 -8.951670 -3.642565 -6.201002 9.901942 5.771441 10.353799 -2.057386 27.025883 11.432184 -0.937900 -9.707216 -2.324080 -12.387973 -9.872906 16.278336 3.310139 -14.820855 -11.429369 -0.642036 6.247761 
-64.143127 50.587566 57.502262 -4.334831 2.582959 -56.699448 0.000000 0.000000 0.000000 4.152169 1.239845 1.436056 5.513320 0.292570 2.988342 11.223251 2.490233 0.058963 0.273699 -1.546260 4.327991 -75.730461 17.041321 3.219855 -33.048336 -3.670526 20.059130 -5.635212 8.528626 -3.824416 4.330028 8.902246 4.085986 53.203976 -15.019058 6.452344 33.689972 6.670724 11.690710 -0.867960 -9.106227 -3.548530 -5.174550 10.494861 5.644961 8.909639 -2.369621 18.857706 7.672143 -0.464862 -7.717819 -1.552895 -12.277153 -10.075212 15.862339 3.392842 -14.663334 -11.474811 -0.672814 6.558689 
-64.103752 50.506424 57.914063 -4.145438 2.119727 -56.416241 0.000000 0.000000 0.000000 4.192580 1.259348 1.475112 5.668226 0.273082 2.919982 11.649949 2.587891 -0.009756 0.434403 -1.328212 4.366453 -75.816368 15.438958 3.388365 -32.435692 -3.648746 19.796186 -7.462172 6.250082 -3.721903 4.416329 8.578887 4.121160 53.717285 -12.729398 7.106697 34.538124 6.594322 12.213317 -1.451375 -8.546382 -3.515013 -2.508735 10.802718 5.553448 4.391197 -2.372188 13.118475 5.526714 -0.264487 -6.064884 -0.937672 -12.468725 -10.428633 16.092184 3.581150 -14.194505 -11.755758 -0.728449 7.013717 
-64.068665 50.369987 58.303013 -2.964943 2.023377 -55.980408 0.000000 0.000000 0.000000 3.516001 1.552234 1.455867 5.473095 0.487697 2.802882 11.536223 2.636710 -0.146329 0.359250 -1.150844 3.750753 -75.804878 14.556026 3.457626 -33.394123 -3.380696 20.251934 -5.857978 5.653713 -3.643816 4.583137 8.845126 3.464062 53.962952 -10.815549 6.959912 35.936230 6.257215 12.211574 -1.283315 -7.840587 -3.522762 -1.698598 11.778954 5.783108 1.433411 -2.192271 11.636671 4.627423 -0.251532 -6.800202 -1.357681 -11.793557 -9.967023 16.410622 3.442323 -15.076642 -11.909151 -0.826345 7.793242 
-63.946739 50.226181 58.868496 -1.914181 1.678240 -55.729408 0.000000 0.000000 0.000000 3.024704 1.893969 1.397335 5.298640 0.770692 2.597947 11.606325 2.792930 -0.302851 0.201966 -0.790491 3.291360 -75.938499 13.218584 3.449057 -33.659157 -3.101350 21.007425 -5.936839 3.871727 -3.525208 4.606850 9.233396 2.975825 53.975803 -9.221810 7.077486 38.166992 5.741480 12.369792 -3.184360 -6.965034 -3.459771 -1.455374 12.740172 5.881341 0.145111 -1.970453 11.054996 4.999393 -0.381445 -9.051777 -1.406555 -11.462310 -9.916820 16.578577 3.589913 -15.328123 -11.937534 -0.908989 8.556564 
-63.770161 50.092888 59.535519 -0.667219 1.584670 -55.314766 0.000000 0.000000 0.000000 2.237196 2.148067 1.065535 4.769257 1.317668 1.856101 12.626019 2.499916 -0.469156 -0.217287 0.048759 2.607402 -76.190170 11.648645 4.500273 -33.279232 -3.146520 22.622179 -5.662822 1.854501 -3.400086 4.311565 9.657887 2.260092 54.135078 -7.131178 6.796109 39.631313 5.440158 10.866315 -2.086088 -7.344048 -3.495614 -0.957607 13.451462 6.270859 -1.716544 -2.037140 11.709185 5.778336 -0.497913 -9.882813 -1.406616 -11.277091 -9.876748 16.223801 3.753876 -15.488185 -11.745570 -1.000734 9.375490 
-63.557766 49.982441 60.307796 0.144012 1.037295 -54.749565 0.000000 0.000000 0.000000 1.956199 2.548728 0.508613 4.719157 0.937244 1.338191 12.715955 3.251603 -0.840707 -0.439067 -1.445031 2.354412 -73.971176 10.035847 6.084207 -34.612850 -3.674773 21.885855 -5.188873 2.271511 -3.428952 4.145162 9.571321 1.983678 54.261539 -5.068769 6.663487 40.434586 5.164316 10.787805 -2.307703 -6.946980 -3.486581 -4.383384 14.378667 5.851612 5.786766 -2.312734 9.727385 1.331394 -0.050185 -10.195355 -0.450134 -11.041172 -9.883085 15.263256 3.630648 -16.003704 -11.223331 -1.032577 10.409818 
-63.265034 50.031963 61.096638 -0.424083 0.566912 -54.515610 0.000000 0.000000 0.000000 2.405179 1.679640 0.430075 5.280528 0.693323 0.586013 13.128587 3.465996 -1.232351 -0.586543 -1.817619 2.774662 -73.481842 7.320088 7.020299 -34.012218 -3.826766 23.703501 -4.735608 2.364492 -3.445283 3.596565 9.312666 2.476769 54.975918 -2.814578 6.465392 39.969227 4.947948 11.135031 -2.707638 -6.796755 -3.476740 -3.173293 13.278008 6.105954 4.787797 -3.001577 12.100498 1.911604 -0.117842 -9.826632 1.970255 -11.801032 -10.508432 12.651438 3.237476 -15.343233 -9.927236 -0.980451 11.199032 
-62.881508 50.095894 61.810184 -1.442143 0.869245 -54.696709 0.000000 0.000000 0.000000 2.884781 0.302709 0.742229 5.565608 -0.781250 0.058588 13.246715 4.625372 -2.243217 -0.280859 -3.888966 3.210907 -70.929909 4.537921 9.067899 -35.121906 -4.583104 25.265512 -3.576622 2.430803 -3.445728 3.786857 7.952959 3.018750 56.339691 -1.217286 5.986123 40.108505 4.692961 11.565708 -5.287684 -5.263218 -3.451705 -1.386619 11.382993 5.673769 2.556245 -3.318532 13.181803 2.380906 -0.164533 -9.247762 3.082506 -13.576561 -11.545734 11.081934 3.034008 -14.960959 -8.593964 -0.912128 11.910944 
-62.450172 50.103294 62.611523 -1.250679 1.334883 -55.129715 0.000000 0.000000 0.000000 2.581573 -0.253828 1.425767 5.754400 -1.435545 -0.097870 13.029276 5.392032 -3.197022 -0.342276 -3.469034 2.905630 -70.829681 1.890143 10.307857 -35.180199 -4.893624 26.366386 -4.062095 2.539492 -3.455739 4.584627 7.094291 2.774088 57.914581 -1.279408 5.874769 41.090263 4.427088 12.449896 -6.092890 -6.963796 -3.366932 -3.749564 10.876331 5.523798 7.461990 -4.213421 12.564392 -0.982009 0.103665 -8.476895 4.245811 -14.450082 -12.100723 8.039637 2.873571 -13.776846 -6.958261 -0.788071 12.511836 
-61.996914 50.162209 63.380367 -0.649662 1.314250 -55.744663 0.000000 0.000000 0.000000 2.480356 -0.273259 2.070335 5.966797 -1.699219 -0.000290 13.360929 5.388429 -3.824753 -0.161137 -3.107250 2.797307 -70.409042 -1.012153 11.039882 -34.683929 -5.144579 26.495657 -4.006270 2.093192 -3.433058 5.286227 6.776275 2.671185 59.023579 -1.337865 5.827017 41.598381 4.533787 11.556480 -4.828392 -6.162852 -3.429272 -5.253521 10.408585 5.228352 10.319700 -4.200520 14.053547 -2.754064 0.219779 -7.941020 6.881816 -14.107347 -12.430022 1.590251 2.431118 -14.010009 -3.294146 -0.403269 12.805458 
-61.553551 50.197502 64.072830 -0.179470 1.225414 -56.621368 0.000000 0.000000 0.000000 2.502205 -0.380465 2.607430 6.175826 -1.894522 0.175685 13.864881 4.899377 -4.136035 0.322431 -3.386727 2.808198 -69.388000 -4.022255 11.257555 -33.737396 -5.205959 26.874826 -4.020566 1.173549 -3.390270 5.940850 6.768554 2.677792 59.557964 -0.852105 6.915079 41.972610 4.696509 11.867031 -2.856355 -8.236179 -3.454031 -6.248990 10.056401 5.143079 12.163808 -4.327069 15.011402 -3.988311 0.275224 -7.313563 6.532023 -14.608079 -12.692091 1.415475 2.477477 -12.927175 -2.767363 -0.352822 13.478768 
-61.195011 50.248093 64.754280 -0.263535 0.776936 -57.732822 0.000000 0.000000 0.000000 3.003380 -0.604529 3.193491 6.567809 -2.382770 0.341907 14.184664 4.458467 -4.574047 1.184531 -4.471114 3.271793 -67.793861 -6.733923 11.080700 -33.712509 -5.196312 26.390728 -5.568430 1.742312 -3.395814 6.537902 6.677588 3.152286 59.783615 -0.110404 8.038117 41.846958 4.356994 17.642670 -0.522596 -6.353395 -3.534242 -5.856652 9.408504 5.199797 13.112082 -4.533099 16.008337 -5.111880 0.352904 -6.678515 6.317287 -15.234215 -13.115954 1.619087 2.460769 -12.602168 -0.640556 -0.121040 13.980819 
-60.895947 50.324356 65.317184 -0.025606 0.396149 -58.664318 0.000000 0.000000 0.000000 3.406268 -0.828525 3.506199 6.704321 -2.626842 0.527685 14.256957 4.399208 -4.711111 1.823186 -5.109374 3.656150 -66.531601 -8.675838 10.489288 -34.371006 -4.848415 26.651514 -2.839173 2.012900 -3.450855 6.792293 6.954382 3.532663 59.881721 0.270035 9.428463 43.450039 3.962038 21.694521 -0.173315 -7.075325 -3.555796 -5.563110 8.987853 5.039179 13.121089 -4.285410 17.388365 -5.324461 0.325842 -6.354232 5.729459 -15.229338 -13.193122 1.825015 2.368835 -13.937356 1.757662 0.193105 14.193275 
